<svg xmlns="http://www.w3.org/2000/svg" viewBox="0 0 64 64" role="img" aria-label="Curly braces icon representing typed records">
  <rect x="4" y="4" width="56" height="56" rx="12" fill="#263141" />
  <path
    d="M25 16c-4 0-6 2-6 6v6c0 2-1 4-4 4 3 0 4 2 4 4v6c0 4 2 6 6 6"
    fill="none" stroke="#a42828" stroke-width="3.5" stroke-linecap="round" stroke-linejoin="round" />
  <path
    d="M39 16c4 0 6 2 6 6v6c0 2 1 4 4 4-3 0-4 2-4 4v6c0 4-2 6-6 6"
    fill="none" stroke="#a42828" stroke-width="3.5" stroke-linecap="round" stroke-linejoin="round" />
</svg>
